<svg width="159" height="36" viewBox="0 0 159 36" fill="none" xmlns="http://www.w3.org/2000/svg">
<path fill-rule="evenodd" clip-rule="evenodd" d="M4.86932 9.21885V29.0909H22.9517V24.6733H10.1392V6.08614C11.6636 5.56426 13.2987 5.28104 15 5.28104C23.2843 5.28104 30 11.9968 30 20.281C30 28.5653 23.2843 35.281 15 35.281C6.71573 35.281 0 28.5653 0 20.281C0 15.9019 1.87653 11.9611 4.86932 9.21885ZM4.86932 9.21885V0H10.1392V6.08614C8.16445 6.76219 6.37552 7.83873 4.86932 9.21885Z" fill="white"/>
<path d="M35.321 29.281V18.3719H37.892V29.281H35.321ZM36.6136 16.8237C36.2064 16.8237 35.8561 16.6887 35.5625 16.4188C35.2689 16.1442 35.1222 15.8151 35.1222 15.4316C35.1222 15.0433 35.2689 14.7143 35.5625 14.4444C35.8561 14.1698 36.2064 14.0325 36.6136 14.0325C37.0256 14.0325 37.3759 14.1698 37.6648 14.4444C37.9583 14.7143 38.1051 15.0433 38.1051 15.4316C38.1051 15.8151 37.9583 16.1442 37.6648 16.4188C37.3759 16.6887 37.0256 16.8237 36.6136 16.8237ZM43.1069 22.889V29.281H40.5359V18.3719H42.9933V20.2256H43.1211C43.372 19.6148 43.7721 19.1295 44.3214 18.7697C44.8754 18.4098 45.5595 18.2299 46.3739 18.2299C47.1268 18.2299 47.7826 18.3909 48.3413 18.7129C48.9047 19.0348 49.3403 19.5012 49.6481 20.112C49.9606 20.7228 50.1145 21.4638 50.1097 22.335V29.281H47.5387V22.7327C47.5387 22.0036 47.3493 21.433 46.9705 21.0211C46.5965 20.6092 46.078 20.4032 45.4151 20.4032C44.9653 20.4032 44.5652 20.5026 44.2148 20.7015C43.8692 20.8956 43.5969 21.1773 43.3981 21.5467C43.204 21.916 43.1069 22.3634 43.1069 22.889ZM55.0671 25.8577L55.06 22.754H55.4719L59.3924 18.3719H62.3967L57.5742 23.7413H57.0415L55.0671 25.8577ZM52.7234 29.281V14.7356H55.2944V29.281H52.7234ZM59.57 29.281L56.0188 24.3165L57.7518 22.5055L62.6452 29.281H59.57ZM64.1101 33.3719V18.3719H66.6385V20.1759H66.7876C66.9202 19.9108 67.1072 19.629 67.3487 19.3308C67.5902 19.0277 67.9169 18.7697 68.3288 18.5566C68.7408 18.3388 69.2663 18.2299 69.9055 18.2299C70.7483 18.2299 71.5083 18.4453 72.1854 18.8762C72.8672 19.3023 73.407 19.9344 73.8047 20.7725C74.2071 21.6058 74.4084 22.6286 74.4084 23.8407C74.4084 25.0386 74.2119 26.0566 73.8189 26.8947C73.4259 27.7327 72.8909 28.3719 72.2138 28.8123C71.5367 29.2526 70.7696 29.4728 69.9126 29.4728C69.2876 29.4728 68.7692 29.3686 68.3572 29.1603C67.9453 28.952 67.6139 28.701 67.3629 28.4075C67.1167 28.1092 66.925 27.8274 66.7876 27.5623H66.6811V33.3719H64.1101ZM66.6314 23.8265C66.6314 24.532 66.7308 25.1499 66.9297 25.6802C67.1333 26.2105 67.4245 26.6248 67.8033 26.9231C68.1868 27.2166 68.6508 27.3634 69.1953 27.3634C69.7635 27.3634 70.2393 27.2119 70.6229 26.9089C71.0064 26.6011 71.2952 26.1821 71.4893 25.6518C71.6882 25.1167 71.7876 24.5083 71.7876 23.8265C71.7876 23.1494 71.6906 22.5481 71.4964 22.0225C71.3023 21.4969 71.0135 21.085 70.63 20.7867C70.2464 20.4884 69.7682 20.3393 69.1953 20.3393C68.6461 20.3393 68.1797 20.4837 67.7962 20.7725C67.4126 21.0613 67.1214 21.4662 66.9226 21.987C66.7285 22.5078 66.6314 23.121 66.6314 23.8265ZM81.4396 29.4941C80.3459 29.4941 79.4013 29.2668 78.6058 28.8123C77.8151 28.353 77.2067 27.7043 76.7805 26.8663C76.3544 26.0235 76.1413 25.0315 76.1413 23.8904C76.1413 22.7683 76.3544 21.7834 76.7805 20.9359C77.2114 20.0836 77.8127 19.4207 78.5845 18.9472C79.3563 18.469 80.263 18.2299 81.3047 18.2299C81.977 18.2299 82.6115 18.3388 83.2081 18.5566C83.8094 18.7697 84.3397 19.1011 84.799 19.5509C85.263 20.0007 85.6276 20.5736 85.8928 21.2697C86.1579 21.961 86.2905 22.7848 86.2905 23.7413V24.5296H77.3487V22.7967H83.826C83.8213 22.3042 83.7147 21.8663 83.5064 21.4827C83.2981 21.0945 83.0069 20.7891 82.6328 20.5665C82.2635 20.344 81.8326 20.2327 81.3402 20.2327C80.8146 20.2327 80.353 20.3606 79.9553 20.6163C79.5575 20.8672 79.2474 21.1986 79.0249 21.6106C78.8071 22.0178 78.6958 22.4652 78.6911 22.9529V24.4657C78.6911 25.1002 78.8071 25.6447 79.0391 26.0992C79.2711 26.549 79.5954 26.8947 80.0121 27.1361C80.4287 27.3729 80.9164 27.4913 81.4751 27.4913C81.8492 27.4913 82.1877 27.4392 82.4908 27.335C82.7938 27.2261 83.0566 27.0675 83.2791 26.8592C83.5017 26.6508 83.6697 26.3928 83.7834 26.085L86.1839 26.3549C86.0324 26.9894 85.7436 27.5433 85.3175 28.0168C84.8961 28.4856 84.3563 28.8502 83.6982 29.1106C83.04 29.3663 82.2872 29.4941 81.4396 29.4941ZM91.0366 22.889V29.281H88.4656V18.3719H90.9229V20.2256H91.0508C91.3017 19.6148 91.7018 19.1295 92.2511 18.7697C92.805 18.4098 93.4892 18.2299 94.3036 18.2299C95.0565 18.2299 95.7122 18.3909 96.271 18.7129C96.8344 19.0348 97.27 19.5012 97.5778 20.112C97.8903 20.7228 98.0442 21.4638 98.0394 22.335V29.281H95.4684V22.7327C95.4684 22.0036 95.279 21.433 94.9002 21.0211C94.5262 20.6092 94.0077 20.4032 93.3448 20.4032C92.895 20.4032 92.4949 20.5026 92.1445 20.7015C91.7989 20.8956 91.5266 21.1773 91.3278 21.5467C91.1336 21.916 91.0366 22.3634 91.0366 22.889ZM104.701 29.4728C103.844 29.4728 103.077 29.2526 102.4 28.8123C101.723 28.3719 101.188 27.7327 100.795 26.8947C100.402 26.0566 100.206 25.0386 100.206 23.8407C100.206 22.6286 100.404 21.6058 100.802 20.7725C101.205 19.9344 101.747 19.3023 102.429 18.8762C103.11 18.4453 103.87 18.2299 104.708 18.2299C105.348 18.2299 105.873 18.3388 106.285 18.5566C106.697 18.7697 107.024 19.0277 107.265 19.3308C107.507 19.629 107.694 19.9108 107.826 20.1759H107.933V14.7356H110.511V29.281H107.983V27.5623H107.826C107.694 27.8274 107.502 28.1092 107.251 28.4075C107 28.701 106.669 28.952 106.257 29.1603C105.845 29.3686 105.326 29.4728 104.701 29.4728ZM105.419 27.3634C105.963 27.3634 106.427 27.2166 106.811 26.9231C107.194 26.6248 107.485 26.2105 107.684 25.6802C107.883 25.1499 107.983 24.532 107.983 23.8265C107.983 23.121 107.883 22.5078 107.684 21.987C107.49 21.4662 107.201 21.0613 106.818 20.7725C106.439 20.4837 105.973 20.3393 105.419 20.3393C104.846 20.3393 104.368 20.4884 103.984 20.7867C103.6 21.085 103.312 21.4969 103.118 22.0225C102.923 22.5481 102.826 23.1494 102.826 23.8265C102.826 24.5083 102.923 25.1167 103.118 25.6518C103.316 26.1821 103.608 26.6011 103.991 26.9089C104.379 27.2119 104.855 27.3634 105.419 27.3634ZM118.08 29.4941C116.987 29.4941 116.042 29.2668 115.246 28.8123C114.456 28.353 113.847 27.7043 113.421 26.8663C112.995 26.0235 112.782 25.0315 112.782 23.8904C112.782 22.7683 112.995 21.7834 113.421 20.9359C113.852 20.0836 114.453 19.4207 115.225 18.9472C115.997 18.469 116.904 18.2299 117.945 18.2299C118.618 18.2299 119.252 18.3388 119.849 18.5566C120.45 18.7697 120.98 19.1011 121.44 19.5509C121.904 20.0007 122.268 20.5736 122.533 21.2697C122.799 21.961 122.931 22.7848 122.931 23.7413V24.5296H113.989V22.7967H120.467C120.462 22.3042 120.355 21.8663 120.147 21.4827C119.939 21.0945 119.647 20.7891 119.273 20.5665C118.904 20.344 118.473 20.2327 117.981 20.2327C117.455 20.2327 116.994 20.3606 116.596 20.6163C116.198 20.8672 115.888 21.1986 115.665 21.6106C115.448 22.0178 115.336 22.4652 115.332 22.9529V24.4657C115.332 25.1002 115.448 25.6447 115.68 26.0992C115.912 26.549 116.236 26.8947 116.653 27.1361C117.069 27.3729 117.557 27.4913 118.116 27.4913C118.49 27.4913 118.828 27.4392 119.131 27.335C119.434 27.2261 119.697 27.0675 119.92 26.8592C120.142 26.6508 120.31 26.3928 120.424 26.085L122.825 26.3549C122.673 26.9894 122.384 27.5433 121.958 28.0168C121.537 28.4856 120.997 28.8502 120.339 29.1106C119.681 29.3663 118.928 29.4941 118.08 29.4941ZM127.45 25.8577L127.443 22.754H127.855L131.775 18.3719H134.779L129.957 23.7413H129.424L127.45 25.8577ZM125.106 29.281V14.7356H127.677V29.281H125.106ZM131.953 29.281L128.402 24.3165L130.135 22.5055L135.028 29.281H131.953ZM138.077 29.4373C137.646 29.4373 137.277 29.2858 136.969 28.9827C136.661 28.6797 136.509 28.3104 136.514 27.8748C136.509 27.4486 136.661 27.0841 136.969 26.781C137.277 26.478 137.646 26.3265 138.077 26.3265C138.493 26.3265 138.856 26.478 139.163 26.781C139.476 27.0841 139.634 27.4486 139.639 27.8748C139.634 28.1636 139.559 28.4264 139.412 28.6631C139.27 28.8999 139.08 29.0893 138.844 29.2313C138.612 29.3686 138.356 29.4373 138.077 29.4373ZM142.294 29.281V18.3719H144.865V29.281H142.294ZM143.586 16.8237C143.179 16.8237 142.829 16.6887 142.535 16.4188C142.242 16.1442 142.095 15.8151 142.095 15.4316C142.095 15.0433 142.242 14.7143 142.535 14.4444C142.829 14.1698 143.179 14.0325 143.586 14.0325C143.998 14.0325 144.349 14.1698 144.637 14.4444C144.931 14.7143 145.078 15.0433 145.078 15.4316C145.078 15.8151 144.931 16.1442 144.637 16.4188C144.349 16.6887 143.998 16.8237 143.586 16.8237ZM150.08 22.889V29.281H147.509V18.3719H149.966V20.2256H150.094C150.345 19.6148 150.745 19.1295 151.294 18.7697C151.848 18.4098 152.532 18.2299 153.347 18.2299C154.099 18.2299 154.755 18.3909 155.314 18.7129C155.877 19.0348 156.313 19.5012 156.621 20.112C156.933 20.7228 157.087 21.4638 157.082 22.335V29.281H154.511V22.7327C154.511 22.0036 154.322 21.433 153.943 21.0211C153.569 20.6092 153.051 20.4032 152.388 20.4032C151.938 20.4032 151.538 20.5026 151.188 20.7015C150.842 20.8956 150.57 21.1773 150.371 21.5467C150.177 21.916 150.08 22.3634 150.08 22.889Z" fill="white"/>
</svg>
