<svg width="24" height="24" viewBox="0 0 24 24" fill="none" xmlns="http://www.w3.org/2000/svg">
<g clip-path="url(#clip0_15_18)">
<path d="M4.66634 3.99999H15.333V10.5333H16.6663V3.99999C16.6663 3.64637 16.5259 3.30723 16.2758 3.05718C16.0258 2.80713 15.6866 2.66666 15.333 2.66666H4.66634C4.31272 2.66666 3.97358 2.80713 3.72353 3.05718C3.47348 3.30723 3.33301 3.64637 3.33301 3.99999V20C3.33301 20.3536 3.47348 20.6927 3.72353 20.9428C3.97358 21.1928 4.31272 21.3333 4.66634 21.3333H15.333C15.6866 21.3333 16.0258 21.1928 16.2758 20.9428C16.5259 20.6927 16.6663 20.3536 16.6663 20H4.66634V3.99999Z" fill="white"/>
<path d="M18.7729 11.52C18.6454 11.4108 18.4813 11.3537 18.3136 11.3602C18.1458 11.3667 17.9866 11.4362 17.8679 11.5549C17.7492 11.6737 17.6796 11.8328 17.6731 12.0006C17.6666 12.1684 17.7237 12.3325 17.8329 12.46L20.0863 14.6667H10.4196C10.2428 14.6667 10.0732 14.7369 9.94819 14.8619C9.82317 14.9869 9.75293 15.1565 9.75293 15.3333C9.75293 15.5101 9.82317 15.6797 9.94819 15.8047C10.0732 15.9297 10.2428 16 10.4196 16H20.0863L17.8329 18.3067C17.7631 18.3664 17.7065 18.44 17.6664 18.5227C17.6264 18.6054 17.6039 18.6955 17.6004 18.7873C17.5969 18.8791 17.6123 18.9707 17.6458 19.0562C17.6794 19.1418 17.7302 19.2194 17.7952 19.2844C17.8601 19.3494 17.9378 19.4002 18.0234 19.4337C18.1089 19.4673 18.2005 19.4827 18.2923 19.4792C18.3841 19.4756 18.4742 19.4532 18.5569 19.4131C18.6396 19.3731 18.7132 19.3164 18.7729 19.2467L22.6663 15.38L18.7729 11.52Z" fill="white"/>
</g>
<defs>
<clipPath id="clip0_15_18">
<rect width="24" height="24" fill="white"/>
</clipPath>
</defs>
</svg>
