<svg width="24" height="24" viewBox="0 0 24 24" fill="none" xmlns="http://www.w3.org/2000/svg">
<g clip-path="url(#clip0_15_23)">
<path d="M4.5 4.5H7V7H4.5V4.5Z" fill="black"/>
<path d="M9.5 2V9.5H2V2H9.5ZM8.25 3.25H3.25V8.25H8.25V3.25ZM7 17H4.5V19.5H7V17Z" fill="black"/>
<path d="M9.5 14.5V22H2V14.5H9.5ZM3.25 15.75V20.75H8.25V15.75H3.25ZM17 4.5H19.5V7H17V4.5Z" fill="black"/>
<path d="M14.5 2V9.5H22V2H14.5ZM20.75 3.25V8.25H15.75V3.25H20.75ZM12 3.25V2H13.25V4.5H12V7H10.75V3.25H12ZM12 9.5V7H13.25V9.5H12ZM9.5 12V10.75H10.75V9.5H12V12H13.25V10.75H19.5V12H14.5V13.25H10.75V12H9.5ZM9.5 12V13.25H4.5V12H3.25V13.25H2V10.75H5.75V12H9.5ZM22 13.25H20.75V10.75H22V13.25ZM20.75 13.25H19.5V15.75H22V14.5H20.75V13.25ZM15.75 13.25H18.25V14.5H17V15.75H15.75V13.25ZM18.25 17V15.75H17V17H15.75V18.25H13.25V19.5H17V17H18.25ZM18.25 17H22V18.25H19.5V19.5H18.25V17ZM13.25 15.75V17H14.5V14.5H10.75V15.75H13.25Z" fill="black"/>
<path d="M10.75 17H12V20.75H17V22H10.75V17ZM22 19.5V22H18.25V20.75H20.75V19.5H22Z" fill="black"/>
</g>
<defs>
<clipPath id="clip0_15_23">
<rect width="20" height="20" fill="white" transform="translate(2 2)"/>
</clipPath>
</defs>
</svg>
